<svg xmlns="http://www.w3.org/2000/svg" width="24" height="24" viewBox="0 0 24 24">
  <g id="check-box" transform="translate(-691 -3675)">
    <path id="Vector" d="M20.208,0H3.792A3.8,3.8,0,0,0,0,3.792V20.208A3.8,3.8,0,0,0,3.792,24H20.208A3.8,3.8,0,0,0,24,20.208V3.792A3.8,3.8,0,0,0,20.208,0Zm1.264,20.208a1.265,1.265,0,0,1-1.264,1.264H3.792a1.265,1.265,0,0,1-1.264-1.264V3.792A1.265,1.265,0,0,1,3.792,2.528H20.208a1.265,1.265,0,0,1,1.264,1.264V20.208Z" transform="translate(691 3675)" fill="#c70752"/>
    <path id="Vector-2" data-name="Vector" d="M10.838,0A1.516,1.516,0,0,0,9.758.447L4.11,6.1,2.605,4.6A1.526,1.526,0,0,0,.447,6.757L3.032,9.342a1.526,1.526,0,0,0,2.158,0l6.727-6.736A1.526,1.526,0,0,0,10.838,0Z" transform="translate(696.819 3682.106)" fill="#c70752"/>
  </g>
</svg>
